# xmcd
#
# Track frame offsets: 
#        150
#        97495
#        132107
#        144348
#        188286
#        243002
#        294318
#
# Disc length: 4558 seconds
#
# Revision: 1
# Processed by: cddbd v1.5.1PL0 Copyright (c) Steve Scherf et al.
# Submitted via: ExactAudioCopy v0.95a5
#
DISCID=5911cc07
DTITLE=Blue Floyd - Blue Floyd. Richmond. VA. 2.7.00 CD1
DYEAR=2000
DGENRE=Rock
TTITLE0=Blade Runner intro > Young Lust > Another Brick In the Wall P 
TTITLE0=2
TTITLE1=Hey You
TTITLE2=Interstellar Overdrive
TTITLE3=Wish You Were Here
TTITLE4=Money
TTITLE5=One Of These Days
TTITLE6=Sheep
EXTD=
EXTT0=
EXTT1=
EXTT2=
EXTT3=
EXTT4=
EXTT5=
EXTT6=
PLAYORDER=
